<svg width="32" height="32" viewBox="0 0 32 32" fill="none" xmlns="http://www.w3.org/2000/svg">
  <!-- Shield shape -->
  <path d="M16 2L4 7v9c0 7.73 5.12 14.95 12 17 6.88-2.05 12-9.27 12-17V7L16 2z" fill="#F7931A"/>
  <!-- Lock body -->
  <rect x="11" y="14" width="10" height="8" rx="1.5" fill="#fff" opacity="0.95"/>
  <!-- Lock shackle -->
  <path d="M13 14v-3a3 3 0 0 1 6 0v3" stroke="#fff" stroke-width="1.5" stroke-linecap="round" fill="none"/>
  <!-- Bitcoin B keyhole -->
  <path d="M15.2 16.5h1.3c.55 0 1 .35 1 .8s-.45.8-1 .8h-1.3v-1.6zm0 1.6h1.3c.55 0 1 .35 1 .8s-.45.8-1 .8h-1.3v-1.6z" fill="#F7931A"/>
</svg>
