<svg xmlns="http://www.w3.org/2000/svg" viewBox="0 0 512 512">
  <defs>
    <linearGradient id="shieldGrad" x1="0%" y1="0%" x2="100%" y2="100%">
      <stop offset="0%" style="stop-color:#F7931A"/>
      <stop offset="100%" style="stop-color:#E8850A"/>
    </linearGradient>
  </defs>
  
  <!-- Shield shape -->
  <path d="M256 28L56 104v152c0 118 82 210 200 228 118-18 200-110 200-228V104L256 28z" 
        fill="url(#shieldGrad)"/>
  
  <!-- Inner shield highlight -->
  <path d="M256 52L80 120v136c0 100 70 180 176 196V52z" 
        fill="rgba(255,255,255,0.12)"/>
  
  <!-- Lock body -->
  <rect x="176" y="240" width="160" height="140" rx="20" fill="#fff"/>
  
  <!-- Lock shackle -->
  <path d="M192 240v-48c0-35.3 28.7-64 64-64s64 28.7 64 64v48" 
        fill="none" stroke="#fff" stroke-width="28" stroke-linecap="round"/>
  
  <!-- Keyhole -->
  <circle cx="256" cy="295" r="22" fill="#F7931A"/>
  <path d="M256 305l-12 40h24l-12-40z" fill="#F7931A"/>
</svg>
